<svg width="88" height="87" viewBox="0 0 88 87" fill="none" xmlns="http://www.w3.org/2000/svg">
<g filter="url(#filter0_d_1075_14743)">
<rect x="6" y="2" width="75.5913" height="74.843" rx="23" fill="white"/>
</g>
<g clip-path="url(#clip0_1075_14743)">
<path d="M39.9456 40.6125C34.8558 41.4375 28.2198 41.2729 23.5814 39.3604C17.1396 36.7291 19.5468 29.652 27.3168 28.9812C33.2335 28.5145 37.3285 28.2437 42.148 29.427C44.3399 29.9604 47.2143 30.6125 45.7049 36.2625C45.2035 38.4854 42.8961 40.2291 39.9456 40.6125V40.6125Z" stroke="#344E41" stroke-width="6" stroke-linecap="round" stroke-linejoin="round"/>
<path d="M27.3299 28.8584C27.5477 27.6834 27.8916 26.525 28.3589 25.3979C29.5559 23.4479 31.2332 21.0896 38.8195 20.2813C41.33 20.2095 43.8438 20.2652 46.3454 20.4479C51.0074 20.7396 53.2832 23.0188 54.9737 27.4646C55.8636 29.875 56.1812 32.3438 56.6249 34.8334V57.75L23.2769 57.7104C21.8279 52.7396 22.5891 45.4313 23.8124 40.0417" stroke="#344E41" stroke-width="6" stroke-linecap="round" stroke-linejoin="round"/>
<path d="M56.625 34.8334C59.2264 35.173 62.1506 35.6313 64.6811 36.2292C65.3505 36.5 66.0461 36.8021 66.0829 37.2813C66.7759 44.4355 67.5791 52.798 66.8126 57.75H56.625" stroke="#344E41" stroke-width="6" stroke-linecap="round" stroke-linejoin="round"/>
</g>
<defs>
<filter id="filter0_d_1075_14743" x="0.2" y="0.2" width="87.1913" height="86.443" filterUnits="userSpaceOnUse" color-interpolation-filters="sRGB">
<feFlood flood-opacity="0" result="BackgroundImageFix"/>
<feColorMatrix in="SourceAlpha" type="matrix" values="0 0 0 0 0 0 0 0 0 0 0 0 0 0 0 0 0 0 127 0" result="hardAlpha"/>
<feOffset dy="4"/>
<feGaussianBlur stdDeviation="2.9"/>
<feComposite in2="hardAlpha" operator="out"/>
<feColorMatrix type="matrix" values="0 0 0 0 0 0 0 0 0 0 0 0 0 0 0 0 0 0 1 0"/>
<feBlend mode="normal" in2="BackgroundImageFix" result="effect1_dropShadow_1075_14743"/>
<feBlend mode="normal" in="SourceGraphic" in2="effect1_dropShadow_1075_14743" result="shape"/>
</filter>
<clipPath id="clip0_1075_14743">
<rect width="63" height="50" fill="white" transform="translate(12 14)"/>
</clipPath>
</defs>
</svg>
