<svg width="68" height="58" viewBox="0 0 68 58" fill="none" xmlns="http://www.w3.org/2000/svg">
<path d="M42.5 12.0833V16.9166M42.5 26.5833V31.4166M42.5 41.0833V45.9166M14.1667 12.0833C11.0371 12.0833 8.5 14.2472 8.5 16.9166V24.1666C11.6296 24.1666 14.1667 26.3305 14.1667 28.9999C14.1667 31.6693 11.6296 33.8333 8.5 33.8333V41.0833C8.5 43.7526 11.0371 45.9166 14.1667 45.9166H53.8333C56.9629 45.9166 59.5 43.7526 59.5 41.0833V33.8333C56.3704 33.8333 53.8333 31.6693 53.8333 28.9999C53.8333 26.3305 56.3704 24.1666 59.5 24.1666V16.9166C59.5 14.2472 56.9629 12.0833 53.8333 12.0833H14.1667Z" stroke="#344E41" stroke-width="6" stroke-linecap="round" stroke-linejoin="round"/>
</svg>
