<svg width="29" height="27" viewBox="0 0 29 27" fill="none" xmlns="http://www.w3.org/2000/svg">
<path d="M14.5 4.89845C15.3856 3.96422 16.6814 3.375 18.125 3.375C20.7944 3.375 22.9583 5.38972 22.9583 7.875C22.9583 10.3603 20.7944 12.375 18.125 12.375C16.6814 12.375 15.3856 11.7858 14.5 10.8516M18.125 23.625H3.625V22.5C3.625 18.7721 6.87094 15.75 10.875 15.75C14.8791 15.75 18.125 18.7721 18.125 22.5V23.625ZM18.125 23.625H25.375V22.5C25.375 18.7721 22.1291 15.75 18.125 15.75C16.8045 15.75 15.5664 16.0787 14.5 16.653M15.7083 7.875C15.7083 10.3603 13.5444 12.375 10.875 12.375C8.20562 12.375 6.04167 10.3603 6.04167 7.875C6.04167 5.38972 8.20562 3.375 10.875 3.375C13.5444 3.375 15.7083 5.38972 15.7083 7.875Z" stroke="#21272A" stroke-width="2" stroke-linecap="round" stroke-linejoin="round"/>
</svg>
