<svg width="206" height="53" viewBox="0 0 206 53" fill="none" xmlns="http://www.w3.org/2000/svg">
<rect width="206" height="53" rx="26.5" fill="#F3ECDC"/>
<path d="M66.8821 16.152L60.9061 33H55.7701L49.7941 16.152H54.1621L58.3381 28.872L62.5381 16.152H66.8821ZM70.6614 18.216C69.9414 18.216 69.3494 18.008 68.8854 17.592C68.4374 17.16 68.2134 16.632 68.2134 16.008C68.2134 15.368 68.4374 14.84 68.8854 14.424C69.3494 13.992 69.9414 13.776 70.6614 13.776C71.3654 13.776 71.9414 13.992 72.3894 14.424C72.8534 14.84 73.0854 15.368 73.0854 16.008C73.0854 16.632 72.8534 17.16 72.3894 17.592C71.9414 18.008 71.3654 18.216 70.6614 18.216ZM72.7014 19.608V33H68.5974V19.608H72.7014ZM88.2995 26.088C88.2995 26.472 88.2755 26.872 88.2275 27.288H78.9395C79.0035 28.12 79.2675 28.76 79.7315 29.208C80.2115 29.64 80.7955 29.856 81.4835 29.856C82.5075 29.856 83.2195 29.424 83.6195 28.56H87.9875C87.7635 29.44 87.3555 30.232 86.7635 30.936C86.1875 31.64 85.4595 32.192 84.5795 32.592C83.6995 32.992 82.7155 33.192 81.6275 33.192C80.3155 33.192 79.1475 32.912 78.1235 32.352C77.0995 31.792 76.2995 30.992 75.7235 29.952C75.1475 28.912 74.8595 27.696 74.8595 26.304C74.8595 24.912 75.1395 23.696 75.6995 22.656C76.2755 21.616 77.0755 20.816 78.0995 20.256C79.1235 19.696 80.2995 19.416 81.6275 19.416C82.9235 19.416 84.0755 19.688 85.0835 20.232C86.0915 20.776 86.8755 21.552 87.4355 22.56C88.0115 23.568 88.2995 24.744 88.2995 26.088ZM84.0995 25.008C84.0995 24.304 83.8595 23.744 83.3795 23.328C82.8995 22.912 82.2995 22.704 81.5795 22.704C80.8915 22.704 80.3075 22.904 79.8275 23.304C79.3635 23.704 79.0755 24.272 78.9635 25.008H84.0995ZM109.689 19.608L106.065 33H101.529L99.4166 24.312L97.2326 33H92.7206L89.0726 19.608H93.1766L95.0726 29.184L97.3286 19.608H101.673L103.953 29.136L105.825 19.608H109.689ZM128.34 35.88L126.18 32.976C125.54 33.104 124.916 33.168 124.308 33.168C122.724 33.168 121.268 32.8 119.94 32.064C118.628 31.328 117.58 30.304 116.796 28.992C116.028 27.664 115.644 26.176 115.644 24.528C115.644 22.88 116.028 21.4 116.796 20.088C117.58 18.776 118.628 17.752 119.94 17.016C121.268 16.28 122.724 15.912 124.308 15.912C125.892 15.912 127.34 16.28 128.652 17.016C129.98 17.752 131.02 18.776 131.772 20.088C132.54 21.4 132.924 22.88 132.924 24.528C132.924 25.968 132.628 27.288 132.036 28.488C131.46 29.672 130.652 30.656 129.612 31.44L133.308 35.88H128.34ZM119.844 24.528C119.844 26.016 120.244 27.208 121.044 28.104C121.86 28.984 122.948 29.424 124.308 29.424C125.652 29.424 126.724 28.976 127.524 28.08C128.34 27.184 128.748 26 128.748 24.528C128.748 23.04 128.34 21.856 127.524 20.976C126.724 20.08 125.652 19.632 124.308 19.632C122.948 19.632 121.86 20.072 121.044 20.952C120.244 21.832 119.844 23.024 119.844 24.528ZM143.846 33L140.342 26.64H139.358V33H135.254V16.152H142.142C143.47 16.152 144.598 16.384 145.526 16.848C146.47 17.312 147.174 17.952 147.638 18.768C148.102 19.568 148.334 20.464 148.334 21.456C148.334 22.576 148.014 23.576 147.374 24.456C146.75 25.336 145.822 25.96 144.59 26.328L148.478 33H143.846ZM139.358 23.736H141.902C142.654 23.736 143.214 23.552 143.582 23.184C143.966 22.816 144.158 22.296 144.158 21.624C144.158 20.984 143.966 20.48 143.582 20.112C143.214 19.744 142.654 19.56 141.902 19.56H139.358V23.736Z" fill="#344E41"/>
<path d="M176.271 31C181.918 31 186.496 26.5228 186.496 21C186.496 15.4772 181.918 11 176.271 11C170.623 11 166.045 15.4772 166.045 21C166.045 26.5228 170.623 31 176.271 31Z" stroke="#344E41" stroke-width="2" stroke-linecap="round" stroke-linejoin="round"/>
<path d="M176.271 25L180.361 21L176.271 17" stroke="#344E41" stroke-width="2" stroke-linecap="round" stroke-linejoin="round"/>
<path d="M172.181 21H180.361" stroke="#344E41" stroke-width="2" stroke-linecap="round" stroke-linejoin="round"/>
</svg>
