<svg width="32" height="28" viewBox="0 0 32 28" fill="none" xmlns="http://www.w3.org/2000/svg">
<path fill-rule="evenodd" clip-rule="evenodd" d="M7.40275 12.8668C7.75195 12.8668 8.07529 12.7421 8.32102 12.5268C8.82542 12.0734 8.82542 11.3708 8.30809 10.9288C8.06235 10.7248 7.73902 10.6001 7.40275 10.6001C7.05355 10.6001 6.73022 10.7248 6.48449 10.9401C5.98009 11.3934 5.98009 12.0961 6.49742 12.5381C6.74315 12.7421 7.06649 12.8668 7.40275 12.8668ZM24.2161 10.6001H15.1628V12.8668H26.8028C26.8028 11.6201 25.6388 10.6001 24.2161 10.6001Z" fill="#28A745" fill-opacity="0.3"/>
<path fill-rule="evenodd" clip-rule="evenodd" d="M7.40271 15.133C8.41151 15.133 9.40737 14.793 10.1704 14.113C11.6707 12.7643 11.6448 10.6223 10.1187 9.30767C9.35564 8.66167 8.37271 8.33301 7.40271 8.33301C6.39391 8.33301 5.39804 8.67301 4.63497 9.35301C3.13471 10.7017 3.16057 12.8437 4.68671 14.1583C5.44977 14.8043 6.43271 15.133 7.40271 15.133ZM6.48444 10.9397C6.73017 10.7243 7.0535 10.5997 7.4027 10.5997C7.73897 10.5997 8.0623 10.713 8.30804 10.917C8.82537 11.359 8.82537 12.0617 8.33391 12.515C8.07524 12.7417 7.7519 12.8663 7.4027 12.8663C7.06644 12.8663 6.74311 12.753 6.49737 12.549C5.98004 12.0957 5.98004 11.393 6.48444 10.9397ZM24.216 8.33301H12.576V15.133H29.3894V12.8663C29.3894 10.3617 27.0743 8.33301 24.216 8.33301ZM15.1627 12.8663V10.5997H24.216C25.6387 10.5997 26.8027 11.6197 26.8027 12.8663H15.1627ZM3.52271 18.533H11.2827V20.7997H21.6294V18.533H29.3894V16.2663H3.52271V18.533Z" fill="#2D3135"/>
</svg>
