<svg width="192" height="56" viewBox="0 0 192 56" fill="none" xmlns="http://www.w3.org/2000/svg">
<rect x="0.5" y="0.5" width="191" height="55" rx="27.5" fill="#344E41" stroke="#F3ECDC"/>
<path d="M65.36 33.52H70.24V35H63.54V21.06H65.36V33.52ZM76.9528 35.18C75.9261 35.18 74.9928 34.9467 74.1528 34.48C73.3261 34.0133 72.6728 33.3533 72.1928 32.5C71.7261 31.6333 71.4928 30.6333 71.4928 29.5C71.4928 28.38 71.7328 27.3933 72.2128 26.54C72.7061 25.6733 73.3728 25.0133 74.2128 24.56C75.0528 24.0933 75.9928 23.86 77.0328 23.86C78.0728 23.86 79.0128 24.0933 79.8528 24.56C80.6928 25.0133 81.3528 25.6667 81.8328 26.52C82.3261 27.3733 82.5728 28.3667 82.5728 29.5C82.5728 30.6333 82.3195 31.6333 81.8128 32.5C81.3195 33.3533 80.6461 34.0133 79.7928 34.48C78.9395 34.9467 77.9928 35.18 76.9528 35.18ZM76.9528 33.58C77.6061 33.58 78.2195 33.4267 78.7928 33.12C79.3661 32.8133 79.8261 32.3533 80.1728 31.74C80.5328 31.1267 80.7128 30.38 80.7128 29.5C80.7128 28.62 80.5395 27.8733 80.1928 27.26C79.8461 26.6467 79.3928 26.1933 78.8328 25.9C78.2728 25.5933 77.6661 25.44 77.0128 25.44C76.3461 25.44 75.7328 25.5933 75.1728 25.9C74.6261 26.1933 74.1861 26.6467 73.8528 27.26C73.5195 27.8733 73.3528 28.62 73.3528 29.5C73.3528 30.3933 73.5128 31.1467 73.8328 31.76C74.1661 32.3733 74.6061 32.8333 75.1528 33.14C75.6995 33.4333 76.2995 33.58 76.9528 33.58ZM89.4858 23.86C90.4324 23.86 91.2591 24.0667 91.9658 24.48C92.6858 24.8933 93.2191 25.4133 93.5658 26.04V24.04H95.4058V35.24C95.4058 36.24 95.1924 37.1267 94.7658 37.9C94.3391 38.6867 93.7258 39.3 92.9258 39.74C92.1391 40.18 91.2191 40.4 90.1658 40.4C88.7258 40.4 87.5258 40.06 86.5658 39.38C85.6058 38.7 85.0391 37.7733 84.8658 36.6H86.6658C86.8658 37.2667 87.2791 37.8 87.9058 38.2C88.5324 38.6133 89.2858 38.82 90.1658 38.82C91.1658 38.82 91.9791 38.5067 92.6058 37.88C93.2458 37.2533 93.5658 36.3733 93.5658 35.24V32.94C93.2058 33.58 92.6724 34.1133 91.9658 34.54C91.2591 34.9667 90.4324 35.18 89.4858 35.18C88.5124 35.18 87.6258 34.94 86.8258 34.46C86.0391 33.98 85.4191 33.3067 84.9658 32.44C84.5124 31.5733 84.2858 30.5867 84.2858 29.48C84.2858 28.36 84.5124 27.38 84.9658 26.54C85.4191 25.6867 86.0391 25.0267 86.8258 24.56C87.6258 24.0933 88.5124 23.86 89.4858 23.86ZM93.5658 29.5C93.5658 28.6733 93.3991 27.9533 93.0658 27.34C92.7324 26.7267 92.2791 26.26 91.7058 25.94C91.1458 25.6067 90.5258 25.44 89.8458 25.44C89.1658 25.44 88.5458 25.6 87.9858 25.92C87.4258 26.24 86.9791 26.7067 86.6458 27.32C86.3124 27.9333 86.1458 28.6533 86.1458 29.48C86.1458 30.32 86.3124 31.0533 86.6458 31.68C86.9791 32.2933 87.4258 32.7667 87.9858 33.1C88.5458 33.42 89.1658 33.58 89.8458 33.58C90.5258 33.58 91.1458 33.42 91.7058 33.1C92.2791 32.7667 92.7324 32.2933 93.0658 31.68C93.3991 31.0533 93.5658 30.3267 93.5658 29.5ZM104.753 22.26C104.407 22.26 104.113 22.14 103.873 21.9C103.633 21.66 103.513 21.3667 103.513 21.02C103.513 20.6733 103.633 20.38 103.873 20.14C104.113 19.9 104.407 19.78 104.753 19.78C105.087 19.78 105.367 19.9 105.593 20.14C105.833 20.38 105.953 20.6733 105.953 21.02C105.953 21.3667 105.833 21.66 105.593 21.9C105.367 22.14 105.087 22.26 104.753 22.26ZM105.633 24.04V35H103.813V24.04H105.633ZM114.075 23.84C115.409 23.84 116.489 24.2467 117.315 25.06C118.142 25.86 118.555 27.02 118.555 28.54V35H116.755V28.8C116.755 27.7067 116.482 26.8733 115.935 26.3C115.389 25.7133 114.642 25.42 113.695 25.42C112.735 25.42 111.969 25.72 111.395 26.32C110.835 26.92 110.555 27.7933 110.555 28.94V35H108.735V24.04H110.555V25.6C110.915 25.04 111.402 24.6067 112.015 24.3C112.642 23.9933 113.329 23.84 114.075 23.84Z" fill="#F3ECDC"/>
</svg>
