<svg width="193" height="58" viewBox="0 0 193 58" fill="none" xmlns="http://www.w3.org/2000/svg">
<rect width="193" height="58" rx="29" fill="#F3ECDC"/>
<path d="M65.0773 36L61.7573 30.3H59.5573V36H57.7373V22.06H62.2373C63.2906 22.06 64.1773 22.24 64.8973 22.6C65.6306 22.96 66.1773 23.4467 66.5373 24.06C66.8973 24.6733 67.0773 25.3733 67.0773 26.16C67.0773 27.12 66.7973 27.9667 66.2373 28.7C65.6906 29.4333 64.8639 29.92 63.7573 30.16L67.2573 36H65.0773ZM59.5573 28.84H62.2373C63.2239 28.84 63.9639 28.6 64.4573 28.12C64.9506 27.6267 65.1973 26.9733 65.1973 26.16C65.1973 25.3333 64.9506 24.6933 64.4573 24.24C63.9773 23.7867 63.2373 23.56 62.2373 23.56H59.5573V28.84ZM79.9052 30.1C79.9052 30.4467 79.8852 30.8133 79.8452 31.2H71.0852C71.1519 32.28 71.5186 33.1267 72.1852 33.74C72.8652 34.34 73.6852 34.64 74.6452 34.64C75.4319 34.64 76.0852 34.46 76.6052 34.1C77.1386 33.7267 77.5119 33.2333 77.7252 32.62H79.6852C79.3919 33.6733 78.8052 34.5333 77.9252 35.2C77.0452 35.8533 75.9519 36.18 74.6452 36.18C73.6052 36.18 72.6719 35.9467 71.8452 35.48C71.0319 35.0133 70.3919 34.3533 69.9252 33.5C69.4586 32.6333 69.2252 31.6333 69.2252 30.5C69.2252 29.3667 69.4519 28.3733 69.9052 27.52C70.3586 26.6667 70.9919 26.0133 71.8052 25.56C72.6319 25.0933 73.5786 24.86 74.6452 24.86C75.6852 24.86 76.6052 25.0867 77.4052 25.54C78.2052 25.9933 78.8186 26.62 79.2452 27.42C79.6852 28.2067 79.9052 29.1 79.9052 30.1ZM78.0252 29.72C78.0252 29.0267 77.8719 28.4333 77.5652 27.94C77.2586 27.4333 76.8386 27.0533 76.3052 26.8C75.7852 26.5333 75.2052 26.4 74.5652 26.4C73.6452 26.4 72.8586 26.6933 72.2052 27.28C71.5652 27.8667 71.1986 28.68 71.1052 29.72H78.0252ZM86.8276 24.86C87.7742 24.86 88.6009 25.0667 89.3076 25.48C90.0276 25.8933 90.5609 26.4133 90.9076 27.04V25.04H92.7476V36.24C92.7476 37.24 92.5342 38.1267 92.1076 38.9C91.6809 39.6867 91.0676 40.3 90.2676 40.74C89.4809 41.18 88.5609 41.4 87.5076 41.4C86.0676 41.4 84.8676 41.06 83.9076 40.38C82.9476 39.7 82.3809 38.7733 82.2076 37.6H84.0076C84.2076 38.2667 84.6209 38.8 85.2476 39.2C85.8742 39.6133 86.6276 39.82 87.5076 39.82C88.5076 39.82 89.3209 39.5067 89.9476 38.88C90.5876 38.2533 90.9076 37.3733 90.9076 36.24V33.94C90.5476 34.58 90.0142 35.1133 89.3076 35.54C88.6009 35.9667 87.7742 36.18 86.8276 36.18C85.8542 36.18 84.9676 35.94 84.1676 35.46C83.3809 34.98 82.7609 34.3067 82.3076 33.44C81.8542 32.5733 81.6276 31.5867 81.6276 30.48C81.6276 29.36 81.8542 28.38 82.3076 27.54C82.7609 26.6867 83.3809 26.0267 84.1676 25.56C84.9676 25.0933 85.8542 24.86 86.8276 24.86ZM90.9076 30.5C90.9076 29.6733 90.7409 28.9533 90.4076 28.34C90.0742 27.7267 89.6209 27.26 89.0476 26.94C88.4876 26.6067 87.8676 26.44 87.1876 26.44C86.5076 26.44 85.8876 26.6 85.3276 26.92C84.7676 27.24 84.3209 27.7067 83.9876 28.32C83.6542 28.9333 83.4876 29.6533 83.4876 30.48C83.4876 31.32 83.6542 32.0533 83.9876 32.68C84.3209 33.2933 84.7676 33.7667 85.3276 34.1C85.8876 34.42 86.5076 34.58 87.1876 34.58C87.8676 34.58 88.4876 34.42 89.0476 34.1C89.6209 33.7667 90.0742 33.2933 90.4076 32.68C90.7409 32.0533 90.9076 31.3267 90.9076 30.5ZM96.7632 23.26C96.4165 23.26 96.1232 23.14 95.8832 22.9C95.6432 22.66 95.5232 22.3667 95.5232 22.02C95.5232 21.6733 95.6432 21.38 95.8832 21.14C96.1232 20.9 96.4165 20.78 96.7632 20.78C97.0965 20.78 97.3765 20.9 97.6032 21.14C97.8432 21.38 97.9632 21.6733 97.9632 22.02C97.9632 22.3667 97.8432 22.66 97.6032 22.9C97.3765 23.14 97.0965 23.26 96.7632 23.26ZM97.6432 25.04V36H95.8232V25.04H97.6432ZM104.625 36.18C103.785 36.18 103.032 36.04 102.365 35.76C101.698 35.4667 101.172 35.0667 100.785 34.56C100.398 34.04 100.185 33.4467 100.145 32.78H102.025C102.078 33.3267 102.332 33.7733 102.785 34.12C103.252 34.4667 103.858 34.64 104.605 34.64C105.298 34.64 105.845 34.4867 106.245 34.18C106.645 33.8733 106.845 33.4867 106.845 33.02C106.845 32.54 106.632 32.1867 106.205 31.96C105.778 31.72 105.118 31.4867 104.225 31.26C103.412 31.0467 102.745 30.8333 102.225 30.62C101.718 30.3933 101.278 30.0667 100.905 29.64C100.545 29.2 100.365 28.6267 100.365 27.92C100.365 27.36 100.532 26.8467 100.865 26.38C101.198 25.9133 101.672 25.5467 102.285 25.28C102.898 25 103.598 24.86 104.385 24.86C105.598 24.86 106.578 25.1667 107.325 25.78C108.072 26.3933 108.472 27.2333 108.525 28.3H106.705C106.665 27.7267 106.432 27.2667 106.005 26.92C105.592 26.5733 105.032 26.4 104.325 26.4C103.672 26.4 103.152 26.54 102.765 26.82C102.378 27.1 102.185 27.4667 102.185 27.92C102.185 28.28 102.298 28.58 102.525 28.82C102.765 29.0467 103.058 29.2333 103.405 29.38C103.765 29.5133 104.258 29.6667 104.885 29.84C105.672 30.0533 106.312 30.2667 106.805 30.48C107.298 30.68 107.718 30.9867 108.065 31.4C108.425 31.8133 108.612 32.3533 108.625 33.02C108.625 33.62 108.458 34.16 108.125 34.64C107.792 35.12 107.318 35.5 106.705 35.78C106.105 36.0467 105.412 36.18 104.625 36.18ZM113.414 26.54V33C113.414 33.5333 113.528 33.9133 113.754 34.14C113.981 34.3533 114.374 34.46 114.934 34.46H116.274V36H114.634C113.621 36 112.861 35.7667 112.354 35.3C111.848 34.8333 111.594 34.0667 111.594 33V26.54H110.174V25.04H111.594V22.28H113.414V25.04H116.274V26.54H113.414ZM128.479 30.1C128.479 30.4467 128.459 30.8133 128.419 31.2H119.659C119.726 32.28 120.093 33.1267 120.759 33.74C121.439 34.34 122.259 34.64 123.219 34.64C124.006 34.64 124.659 34.46 125.179 34.1C125.713 33.7267 126.086 33.2333 126.299 32.62H128.259C127.966 33.6733 127.379 34.5333 126.499 35.2C125.619 35.8533 124.526 36.18 123.219 36.18C122.179 36.18 121.246 35.9467 120.419 35.48C119.606 35.0133 118.966 34.3533 118.499 33.5C118.033 32.6333 117.799 31.6333 117.799 30.5C117.799 29.3667 118.026 28.3733 118.479 27.52C118.933 26.6667 119.566 26.0133 120.379 25.56C121.206 25.0933 122.153 24.86 123.219 24.86C124.259 24.86 125.179 25.0867 125.979 25.54C126.779 25.9933 127.393 26.62 127.819 27.42C128.259 28.2067 128.479 29.1 128.479 30.1ZM126.599 29.72C126.599 29.0267 126.446 28.4333 126.139 27.94C125.833 27.4333 125.413 27.0533 124.879 26.8C124.359 26.5333 123.779 26.4 123.139 26.4C122.219 26.4 121.433 26.6933 120.779 27.28C120.139 27.8667 119.773 28.68 119.679 29.72H126.599ZM132.702 26.82C133.022 26.1933 133.475 25.7067 134.062 25.36C134.662 25.0133 135.388 24.84 136.242 24.84V26.72H135.762C133.722 26.72 132.702 27.8267 132.702 30.04V36H130.882V25.04H132.702V26.82Z" fill="#344E41"/>
</svg>
