<svg width="88" height="87" viewBox="0 0 88 87" fill="none" xmlns="http://www.w3.org/2000/svg">
<g filter="url(#filter0_d_184_31321)">
<rect x="6" y="2" width="75.5913" height="74.843" rx="23" fill="#F3ECDC"/>
</g>
<g clip-path="url(#clip0_184_31321)">
<path d="M39.9456 40.6123C34.8558 41.4373 28.2198 41.2728 23.5814 39.3603C17.1396 36.729 19.5468 29.6519 27.3168 28.9811C33.2335 28.5144 37.3285 28.2436 42.148 29.4269C44.3399 29.9603 47.2143 30.6123 45.7049 36.2623C45.2035 38.4853 42.8961 40.229 39.9456 40.6123V40.6123Z" stroke="#344E41" stroke-width="6" stroke-linecap="round" stroke-linejoin="round"/>
<path d="M27.3299 28.8584C27.5477 27.6834 27.8916 26.525 28.3589 25.3979C29.5559 23.4479 31.2332 21.0896 38.8195 20.2813C41.33 20.2095 43.8438 20.2652 46.3454 20.4479C51.0074 20.7396 53.2832 23.0188 54.9737 27.4646C55.8636 29.875 56.1812 32.3438 56.6249 34.8334V57.75L23.2769 57.7104C21.8279 52.7396 22.5891 45.4313 23.8124 40.0417" stroke="#344E41" stroke-width="6" stroke-linecap="round" stroke-linejoin="round"/>
<path d="M56.625 34.8335C59.2264 35.1731 62.1506 35.6314 64.6811 36.2293C65.3505 36.5002 66.0461 36.8022 66.0829 37.2814C66.7759 44.4356 67.5791 52.7981 66.8126 57.7502H56.625" stroke="#344E41" stroke-width="6" stroke-linecap="round" stroke-linejoin="round"/>
</g>
<defs>
<filter id="filter0_d_184_31321" x="0.2" y="0.2" width="87.1913" height="86.4433" filterUnits="userSpaceOnUse" color-interpolation-filters="sRGB">
<feFlood flood-opacity="0" result="BackgroundImageFix"/>
<feColorMatrix in="SourceAlpha" type="matrix" values="0 0 0 0 0 0 0 0 0 0 0 0 0 0 0 0 0 0 127 0" result="hardAlpha"/>
<feOffset dy="4"/>
<feGaussianBlur stdDeviation="2.9"/>
<feComposite in2="hardAlpha" operator="out"/>
<feColorMatrix type="matrix" values="0 0 0 0 0 0 0 0 0 0 0 0 0 0 0 0 0 0 1 0"/>
<feBlend mode="normal" in2="BackgroundImageFix" result="effect1_dropShadow_184_31321"/>
<feBlend mode="normal" in="SourceGraphic" in2="effect1_dropShadow_184_31321" result="shape"/>
</filter>
<clipPath id="clip0_184_31321">
<rect width="63" height="50" fill="white" transform="translate(12 14)"/>
</clipPath>
</defs>
</svg>
